<?xml version="1.0" encoding="UTF-8"?>
<svg xmlns="http://www.w3.org/2000/svg" xmlns:xlink="http://www.w3.org/1999/xlink" width="48px" height="48px" viewBox="0 0 48 48" version="1.1">
<g id="surface1">
<path style=" stroke:none;fill-rule:nonzero;fill:rgb(0%,0%,0%);fill-opacity:1;" d="M 20.542969 5.875 C 15.675781 9.675781 15.140625 10.148438 14.796875 11.089844 C 14.605469 11.589844 14.449219 14.417969 14.449219 17.78125 L 14.449219 23.558594 L 13.632812 23.875 C 12.25 24.410156 9.613281 24.21875 7.132812 23.402344 C 5.8125 22.996094 4.523438 22.710938 4.273438 22.804688 C 3.707031 23.027344 3.359375 23.9375 3.613281 24.566406 C 4.082031 25.789062 9.488281 27.171875 12.503906 26.859375 C 14.671875 26.640625 14.574219 26.542969 14.511719 29.027344 C 14.480469 30.1875 14.417969 30.21875 12.628906 30.472656 C 11.121094 30.660156 8.230469 30.25 5.75 29.496094 C 4.679688 29.183594 4.367188 29.183594 3.957031 29.496094 C 2.734375 30.503906 3.613281 31.632812 6.28125 32.542969 C 8.640625 33.359375 14.042969 33.394531 15.957031 32.574219 C 17.6875 31.886719 18.628906 31.886719 20.828125 32.671875 C 23.089844 33.457031 24.972656 33.457031 27.234375 32.671875 C 29.433594 31.886719 30.378906 31.886719 32.105469 32.605469 C 34.210938 33.457031 39.800781 33.328125 42.1875 32.386719 C 44.199219 31.601562 44.828125 30.847656 44.292969 29.84375 C 43.886719 29.089844 43.097656 29.058594 41.527344 29.71875 C 40.019531 30.378906 34.902344 30.691406 33.988281 30.1875 C 33.488281 29.9375 33.296875 29.527344 33.296875 28.742188 C 33.296875 26.796875 33.488281 26.671875 35.496094 26.890625 C 38.480469 27.234375 43.539062 25.820312 44.417969 24.441406 C 44.671875 24 44.605469 23.75 44.105469 23.246094 L 43.476562 22.585938 L 40.996094 23.402344 C 38.324219 24.25 35.527344 24.441406 34.242188 23.78125 L 33.457031 23.371094 L 33.296875 16.804688 L 33.140625 10.242188 L 28.773438 6.847656 C 26.386719 4.996094 24.25 3.457031 24.0625 3.457031 C 23.84375 3.457031 22.273438 4.554688 20.542969 5.875 Z M 22.554688 12.785156 C 22.648438 14.574219 22.679688 14.542969 20.605469 14.511719 C 19.164062 14.480469 18.847656 14.230469 18.847656 13.066406 C 18.847656 11.152344 19.066406 10.964844 20.859375 11.058594 L 22.460938 11.152344 Z M 29.089844 11.75 C 29.183594 12.15625 29.214844 12.910156 29.152344 13.382812 C 29.058594 14.199219 28.933594 14.292969 27.613281 14.449219 C 26.796875 14.542969 25.980469 14.574219 25.789062 14.511719 C 25.601562 14.449219 25.445312 13.664062 25.445312 12.691406 L 25.445312 10.996094 L 27.171875 10.996094 C 28.710938 10.996094 28.902344 11.058594 29.089844 11.75 Z M 22.113281 17.464844 C 22.492188 17.621094 22.617188 18.09375 22.617188 19.351562 L 22.617188 21.046875 L 20.921875 21.046875 C 19.664062 21.046875 19.195312 20.921875 19.035156 20.542969 C 18.722656 19.726562 18.816406 18.0625 19.226562 17.65625 C 19.632812 17.246094 21.296875 17.152344 22.113281 17.464844 Z M 28.835938 17.65625 C 29.246094 18.0625 29.339844 19.726562 29.027344 20.542969 C 28.867188 20.921875 28.398438 21.046875 27.140625 21.046875 L 25.445312 21.046875 L 25.445312 19.382812 C 25.445312 18.441406 25.539062 17.589844 25.664062 17.496094 C 26.011719 17.121094 28.429688 17.246094 28.835938 17.65625 Z M 22.554688 25.695312 L 22.648438 27.359375 L 20.828125 27.265625 L 19.003906 27.171875 L 18.910156 25.949219 C 18.753906 24.03125 18.941406 23.84375 20.796875 23.9375 L 22.460938 24.03125 Z M 29.058594 25.601562 L 29.058594 27.171875 L 27.265625 27.265625 L 25.445312 27.359375 L 25.445312 23.84375 L 27.265625 23.9375 L 29.058594 24.03125 Z M 29.058594 25.601562 "/>
<path style=" stroke:none;fill-rule:nonzero;fill:rgb(0%,0%,0%);fill-opacity:1;" d="M 3.800781 35.9375 C 2.734375 37.226562 4.398438 38.542969 8.105469 39.425781 C 10.996094 40.050781 13.003906 39.957031 15.800781 39.046875 C 17.558594 38.417969 17.621094 38.417969 19.414062 39.046875 C 22.242188 39.988281 24.566406 40.082031 27.488281 39.265625 C 30.535156 38.417969 30.441406 38.417969 33.140625 39.265625 C 35.8125 40.082031 38.449219 39.988281 41.527344 38.953125 C 43.886719 38.167969 44.765625 37.445312 44.480469 36.503906 C 44.136719 35.464844 43.445312 35.433594 40.648438 36.3125 C 37.539062 37.289062 35.621094 37.257812 32.417969 36.125 L 30.472656 35.433594 L 28.492188 36.15625 C 25.820312 37.164062 22.242188 37.164062 19.570312 36.15625 L 17.589844 35.433594 L 15.644531 36.15625 C 13.132812 37.066406 9.296875 37.132812 7.226562 36.3125 C 5.121094 35.464844 4.273438 35.371094 3.800781 35.9375 Z M 3.800781 35.9375 "/>
</g>
</svg>
