<?xml version="1.0" encoding="UTF-8"?>
<svg xmlns="http://www.w3.org/2000/svg" xmlns:xlink="http://www.w3.org/1999/xlink" width="48px" height="48px" viewBox="0 0 48 48" version="1.1">
<g id="surface1">
<path style=" stroke:none;fill-rule:nonzero;fill:rgb(0%,0%,0%);fill-opacity:1;" d="M 18.894531 7.976562 C 18.234375 8.1875 17.199219 8.777344 16.613281 9.246094 C 15.410156 10.257812 14.117188 12.589844 14.117188 13.8125 L 14.117188 14.589844 L 12.894531 14.589844 C 10.613281 14.589844 8.257812 16.1875 7.363281 18.328125 C 6.375 20.683594 7.339844 23.90625 9.480469 25.339844 C 11.316406 26.566406 11.976562 26.613281 25.339844 26.542969 L 37.578125 26.46875 L 38.707031 25.765625 C 41.695312 23.90625 41.71875 19.53125 38.730469 17.765625 C 38.070312 17.363281 37.363281 17.175781 36.683594 17.175781 L 35.625 17.175781 L 35.339844 15.835938 C 34.707031 12.777344 32.070312 10.847656 28.917969 11.128906 C 27.578125 11.246094 27.554688 11.222656 27.011719 10.445312 C 25.363281 8 21.859375 6.941406 18.894531 7.976562 Z M 18.894531 7.976562 "/>
<path style=" stroke:none;fill-rule:nonzero;fill:rgb(0%,0%,0%);fill-opacity:1;" d="M 15.929688 28.636719 C 15.859375 28.753906 15.695312 29.292969 15.53125 29.882812 C 15.386719 30.46875 15.222656 31.128906 15.152344 31.339844 C 15.058594 31.695312 15.175781 31.765625 15.859375 31.765625 L 16.683594 31.765625 L 16.328125 32.753906 C 16.140625 33.269531 16.023438 33.765625 16.070312 33.8125 C 16.117188 33.859375 16.753906 33.175781 17.507812 32.304688 L 18.847656 30.707031 L 17.882812 30.636719 C 17.363281 30.589844 16.941406 30.519531 16.941406 30.445312 C 16.941406 30.375 17.105469 29.953125 17.292969 29.480469 C 17.480469 29.035156 17.648438 28.613281 17.648438 28.566406 C 17.648438 28.398438 16.023438 28.46875 15.929688 28.636719 Z M 15.929688 28.636719 "/>
<path style=" stroke:none;fill-rule:nonzero;fill:rgb(0%,0%,0%);fill-opacity:1;" d="M 21.554688 28.871094 C 21.269531 29.789062 20.234375 34.421875 20.234375 34.730469 C 20.234375 34.988281 20.613281 35.058594 21.765625 35.058594 L 23.269531 35.058594 L 22.445312 37.316406 C 22 38.589844 21.671875 39.671875 21.695312 39.765625 C 21.765625 39.929688 27.578125 33.128906 27.71875 32.730469 C 27.765625 32.589844 26.964844 32.46875 25.8125 32.421875 L 23.8125 32.351562 L 24.492188 30.707031 C 24.847656 29.789062 25.152344 28.917969 25.152344 28.753906 C 25.175781 28.566406 24.683594 28.46875 23.433594 28.46875 C 21.976562 28.46875 21.648438 28.542969 21.554688 28.871094 Z M 21.554688 28.871094 "/>
<path style=" stroke:none;fill-rule:nonzero;fill:rgb(0%,0%,0%);fill-opacity:1;" d="M 30.023438 30 C 29.554688 31.90625 29.53125 31.765625 30.351562 31.765625 C 31.175781 31.765625 31.199219 31.859375 30.683594 33.058594 C 30.492188 33.53125 30.351562 33.976562 30.398438 34.023438 C 30.445312 34.070312 31.152344 33.316406 31.953125 32.351562 L 33.433594 30.589844 L 32.445312 30.589844 C 31.554688 30.589844 31.480469 30.542969 31.625 30.046875 C 32.09375 28.375 32.117188 28.46875 31.222656 28.46875 C 30.421875 28.46875 30.398438 28.492188 30.023438 30 Z M 30.023438 30 "/>
</g>
</svg>
