<?xml version="1.0" encoding="UTF-8"?>
<svg width="55px" height="45px" viewBox="0 0 55 45" version="1.1" xmlns="http://www.w3.org/2000/svg" xmlns:xlink="http://www.w3.org/1999/xlink">
    <title>EC5EBA90-2516-4470-975C-E69DB75156CB</title>
    <g id="Rev1.0" stroke="none" stroke-width="1" fill="none" fill-rule="evenodd">
        <g id="MH-COVID-19-Dashboard-Rev1.0-Summary-1" transform="translate(-1229.000000, -1382.000000)" fill="#006580" fill-rule="nonzero">
            <g id="Group-41" transform="translate(82.000000, 1382.000000)">
                <g id="Group-55" transform="translate(1071.000000, 0.000000)">
                    <g id="jhpiego-vector-logo" style="mix-blend-mode: luminosity;" transform="translate(76.000000, 0.000000)">
                        <path d="M48.6672,26.3504 C49.3072,25.8128 50.2416,25.8128 50.8816,26.3504 C51.1888,26.632 51.3552,27.0288 51.3424,27.4384 C51.3552,27.848 51.1888,28.2448 50.8816,28.5136 C50.2416,29.0384 49.3072,29.0384 48.6672,28.5136 C48.36,28.2448 48.1936,27.848 48.2192,27.4384 C48.1936,27.0288 48.36,26.632 48.6672,26.3504 M45.6975333,27.4128 C45.6848,29.4864 47.5152,31.2016 49.7424,31.2272745 C51.9824,31.24 53.7872,29.6016 53.8256,27.464 C53.864,25.3776 52.0336,23.6624 49.7808,23.6495278 C47.528,23.6368 45.7104,25.3264 45.6975333,27.4128" id="Shape"></path>
                        <path d="M24.6288,22.7536 C25.2176,23.24 26.0752,23.24 26.664,22.7536 C26.9456,22.4976 27.0992,22.1392 27.0864,21.7552 C27.0992,21.3712 26.9456,21.0128 26.664,20.7568 C26.0752,20.2576 25.2176,20.2576 24.6288,20.7568 C24.3472,21.0128 24.1936,21.384 24.2064,21.7552 C24.1936,22.1392 24.3472,22.5104 24.6288,22.7536" id="Path"></path>
                        <path d="M19.24,28.9744 C18.28,28.9744 17.6144,28.36 17.6144,27.4512 C17.6144,26.504 18.2544,25.8896 19.2016,25.9024 C20.0336,25.864 20.7248,26.504 20.776,27.3232 C20.776,27.3616 20.776,27.4 20.776,27.4256 C20.8144,28.2448 20.1872,28.936 19.3808,28.9744 C19.3296,28.9744 19.2912,28.9744 19.24,28.9744 M22.7216,29.6016 C23.5024,28.2832 23.5792,26.9264 22.888,25.5568 C22.4016,24.5456 21.4416,23.8416 20.328,23.7008 C19.3552,23.5216 18.3568,23.7904 17.6144,24.4432 L17.6144,23.9952 C17.6144,23.9056 17.5376,23.8416 17.448,23.8416 L15.2592,23.8416 C15.1696,23.8416 15.0928,23.9056 15.0928,23.9952 L15.0928,34.4656 C15.0928,34.5296 15.1312,34.5936 15.1824,34.6192 C15.1824,34.6192 15.8352,34.9136 16.8464,34.6064 C17.6912,34.3376 17.6144,33.3392 17.6144,33.3392 L17.6144,30.4848 C19.7136,31.9952 21.9408,30.9328 22.7216,29.6016" id="Shape"></path>
                        <path d="M40.5904,28.9744 C39.7712,29.0128 39.0928,28.3728 39.0544,27.5664 C39.0544,27.5152 39.0544,27.464 39.0544,27.4256 C39.0288,26.6064 39.6944,25.9152 40.5136,25.9024 C40.552,25.9024 40.5904,25.9024 40.6288,25.9024 C41.576,25.9024 42.216,26.504 42.216,27.4512 C42.216,28.3472 41.5632,28.9744 40.5904,28.9744 M44.7504,30.8432 L44.7504,30.8432 L44.7504,23.9824 C44.7504,23.8928 44.6736,23.8288 44.584,23.8288 L42.3952,23.8288 C42.3056,23.8288 42.2288,23.8928 42.2288,23.9824 L42.2288,24.4432 C41.4864,23.7904 40.488,23.5216 39.5152,23.7008 C38.4016,23.8416 37.4416,24.5456 36.9552,25.5568 C36.264,26.9136 36.3408,28.2832 37.1216,29.6016 C37.9024,30.92 40.1168,31.9824 42.2288,30.4592 L42.2288,30.9328 C42.2288,32.0464 41.5376,32.52 40.5648,32.52 C40.1936,32.5328 39.8352,32.4048 39.5536,32.1616 C39.3744,32.0208 39.2464,31.8288 39.1696,31.624 C39.144,31.5472 39.0672,31.496 38.9776,31.5088 L38.9776,31.5088 L37.0448,32.0976 C36.968,32.1232 36.9168,32.2 36.9296,32.2896 C36.9296,32.2896 36.9296,32.3152 36.9296,32.3152 L36.9296,32.3152 C36.9424,32.3664 36.9552,32.4176 36.9808,32.4688 L36.9808,32.4688 C37.3264,33.4672 38.3632,34.4656 40.0784,34.6448 L40.2832,34.6576 C40.3984,34.6576 40.5136,34.6576 40.6288,34.6576 C43.0224,34.6576 44.6992,33.224 44.7248,30.8176" id="Shape"></path>
                        <path d="M31.8736,25.5568 C32.4496,25.5184 32.9872,25.8896 33.1536,26.44 C33.1792,26.5168 33.192,26.5808 33.2048,26.6576 L30.504,26.6576 C30.6576,26.0176 31.2208,25.5568 31.8736,25.5568 M30.8624,31.0736 C31.1568,31.1504 31.4512,31.2016 31.7584,31.2144 L31.9248,31.2144 C33.128,31.2144 34.216,30.8432 34.92,29.9472 C35.048,29.7808 35.1632,29.6016 35.2656,29.4096 L35.2656,29.384 C35.304,29.2944 35.2656,29.2048 35.176,29.1664 C35.176,29.1664 35.176,29.1664 35.176,29.1664 L35.176,29.1664 L33.384,28.5264 L33.384,28.5264 C33.32,28.5008 33.256,28.5136 33.2048,28.5648 L33.192,28.5776 L33.128,28.6416 L33.128,28.6416 C32.616,29.2816 31.6688,29.3968 31.0288,28.872 C30.7728,28.6672 30.5936,28.3856 30.5168,28.0784 L35.3936,28.0784 C35.4704,28.0656 35.5344,28.0144 35.5472,27.9376 C35.5472,27.9376 35.5472,27.9248 35.5472,27.9248 L35.5472,27.9248 C35.56,27.7328 35.5728,27.528 35.5728,27.3232 C35.5728,27.1824 35.56,27.0416 35.5472,26.9008 C35.4064,25.4544 34.408,24.2384 33.0128,23.8288 C32.6416,23.7136 32.2576,23.6624 31.8736,23.6624 C29.7744,23.6368 28.0464,25.3136 28.008,27.4128 C28.008,27.4128 28.008,27.4256 28.008,27.4256 C28.0208,29.1536 29.1984,30.664 30.8624,31.0736" id="Shape"></path>
                        <path d="M26.9072,30.9456 L26.9072,25.2368 C26.9072,25.2368 26.984,24.2256 26.1392,23.9696 C25.1152,23.6496 24.4752,23.9568 24.4752,23.9568 C24.4112,23.9824 24.3856,24.0464 24.3856,24.1104 L24.3856,30.9456 C24.3856,31.0352 24.4624,31.112 24.552,31.112 C24.552,31.112 24.552,31.112 24.552,31.112 L26.7408,31.112 C26.8304,31.112 26.9072,31.0352 26.9072,30.9456" id="Path"></path>
                        <path d="M6.2352,31.1248 L8.4624,31.1248 C8.552,31.1248 8.616,31.048 8.616,30.9712 L8.616,27.2848 L8.616,27.2848 C8.616,26.952 8.744,26.6192 8.9616,26.3632 C9.1536,26.1456 9.4352,26.0048 9.7296,25.9792 C9.7936,25.9792 9.8448,25.9792 9.9088,25.9792 C10.2672,25.9664 10.6128,26.1072 10.856,26.376 C11.048,26.5808 11.1632,26.8496 11.1888,27.1312 C11.1888,27.144 11.1888,27.1696 11.1888,27.1824 C11.1888,27.2336 11.1888,27.2848 11.1888,27.336 L11.1888,30.9456 C11.1888,31.0352 11.2656,31.112 11.3552,31.112 C11.3552,31.112 11.3552,31.112 11.3552,31.112 L13.544,31.112 C13.6336,31.112 13.7104,31.048 13.7104,30.9584 L13.7104,26.952 C13.7104,25.1344 12.7504,23.6496 10.5744,23.6496 C9.832,23.624 9.1152,23.8928 8.5776,24.4048 L8.5776,21.96 C8.5776,21.96 8.6544,20.9872 7.8096,20.7312 C6.7856,20.4112 6.1456,20.7184 6.1456,20.7184 C6.0816,20.744 6.056,20.808 6.056,20.872 L6.056,30.984 C6.0816,31.0608 6.1456,31.1248 6.2352,31.1248" id="Path"></path>
                        <path d="M2.3952,22.7536 C2.984,23.24 3.8416,23.24 4.4304,22.7536 C4.712,22.4976 4.8656,22.1392 4.8528,21.7552 C4.8656,21.3712 4.712,21.0128 4.4304,20.7568 C3.8416,20.2576 2.984,20.2576 2.3952,20.7568 C2.1136,21.0128 1.96,21.384 1.9728,21.7552 C1.9472,22.1392 2.1008,22.5104 2.3952,22.7536" id="Path"></path>
                        <path d="M1.4736,34.5936 C1.64,34.6704 1.8192,34.7088 1.9984,34.7088 C3.1376,34.6832 4.0592,34.1072 4.456,33.1728 C4.6352,32.7632 4.7248,32.328 4.7248,31.8928 C4.7248,31.5856 4.7248,25.224 4.7248,25.224 C4.7248,25.224 4.8016,24.2128 3.9568,23.9568 L3.8928,23.944 L3.816,23.9184 C3.3168,23.7648 2.7792,23.7648 2.28,23.9312 C2.216,23.9568 2.1904,24.0208 2.1904,24.0848 L2.1904,31.3168 C2.1904,32.1872 2.0624,32.328 1.1408,32.4688 L1.1024,32.4688 C0.9488,32.4688 0.9104,32.7376 0.8976,32.9168 C0.8976,32.9552 0.8976,32.9936 0.8976,33.0448 L0.8976,33.0704 L0.8976,33.0704 C0.8976,33.16 0.8976,33.2624 0.8976,33.3136 C0.8976,33.48 0.9104,33.6464 0.9488,33.8 C0.9488,33.8 0.9488,33.8128 0.9488,33.8256 C0.9616,33.8896 0.9744,33.9536 1,34.0176 C1.0256,34.0944 1.064,34.1584 1.1024,34.2352 L1.128,34.2736 C1.2176,34.4016 1.3456,34.504 1.4864,34.5808" id="Path"></path>
                        <path d="M8.104,37.1152 C7.9376,37.1152 7.7968,37.2432 7.7968,37.4224 C7.7968,37.5888 7.9248,37.7296 8.104,37.7296 C8.2704,37.7296 8.4112,37.6016 8.4112,37.4224 C8.4112,37.4224 8.4112,37.4224 8.4112,37.4224 C8.3984,37.2432 8.2704,37.1152 8.104,37.1152" id="Path"></path>
                        <path d="M15.3616,37.7296 C15.528,37.7296 15.6688,37.5888 15.6688,37.4224 C15.6688,37.256 15.528,37.1152 15.3616,37.1152 C15.1952,37.1152 15.0544,37.256 15.0544,37.4224 L15.0544,37.4224 C15.0544,37.5888 15.1952,37.7296 15.3616,37.7296" id="Path"></path>
                        <path d="M35.816,37.7296 C35.9824,37.7296 36.1232,37.5888 36.1232,37.4224 C36.1232,37.256 35.9824,37.1152 35.816,37.1152 C35.6496,37.1152 35.5088,37.256 35.5088,37.4224 L35.5088,37.4224 C35.5088,37.5888 35.6496,37.7296 35.816,37.7296" id="Path"></path>
                        <path d="M2.3056,39.3936 C2.0496,39.3936 1.8064,39.2912 1.6272,39.0992 C1.576,39.048 1.5248,39.0224 1.448,39.0736 L1.2304,39.24 C1.1664,39.2912 1.1664,39.368 1.2048,39.432 C1.2176,39.4448 1.2176,39.4448 1.2304,39.4576 C1.4992,39.7264 1.8832,39.88 2.2672,39.8544 C2.984,39.8544 3.3296,39.432 3.3296,39.0352 C3.3296,38.6384 3.048,38.3952 2.6128,38.28 L2.088,38.1392 C1.8448,38.0752 1.7808,37.9728 1.7808,37.8576 C1.7808,37.6528 1.9856,37.5376 2.2288,37.5376 C2.4464,37.5504 2.6512,37.6272 2.8176,37.7808 C2.8688,37.832 2.9584,37.8448 3.0096,37.7936 C3.0096,37.7936 3.0096,37.7936 3.0224,37.7808 L3.176,37.6144 C3.2144,37.576 3.2528,37.512 3.1632,37.4224 C2.9072,37.2048 2.5872,37.0896 2.2416,37.1024 C1.6528,37.1024 1.2304,37.4352 1.2304,37.896 C1.2304,38.2672 1.4736,38.5104 1.8704,38.6128 L2.344,38.7408 C2.6,38.8048 2.7408,38.9072 2.7408,39.0864 C2.7792,39.2528 2.6128,39.3936 2.3056,39.3936" id="Path"></path>
                        <path d="M5.0192,38.8816 C5.0064,39.1504 4.776,39.368 4.5072,39.3552 C4.2384,39.3424 4.0208,39.112 4.0336,38.8432 C4.0464,38.5744 4.264,38.3696 4.5328,38.3696 C4.8016,38.3696 5.0192,38.6 5.0192,38.8816 C5.0192,38.8688 5.0192,38.8816 5.0192,38.8816 M3.5472,38.8816 C3.5216,39.3936 3.9184,39.8288 4.4304,39.8544 C4.4432,39.8544 4.456,39.8544 4.456,39.8544 C4.6736,39.8672 4.8912,39.7648 5.0192,39.5728 L5.0192,39.7136 C5.0192,39.752 5.0576,39.7904 5.096,39.7904 L5.4288,39.7904 C5.4672,39.7904 5.5056,39.752 5.5056,39.7136 L5.5056,38.0496 C5.5056,38.0112 5.48,37.9728 5.4288,37.9728 C5.4288,37.9728 5.4288,37.9728 5.4288,37.9728 L5.096,37.9728 C5.0576,37.9728 5.0192,38.0112 5.0192,38.0496 L5.0192,38.1904 C4.8912,38.0112 4.6864,37.896 4.456,37.9088 C3.944,37.9088 3.5344,38.3312 3.5344,38.8304 C3.5472,38.856 3.5472,38.856 3.5472,38.8816" id="Shape"></path>
                        <path d="M7.0288,39.7136 L7.6048,38.088 C7.6304,38.0496 7.6048,37.9984 7.5664,37.9728 C7.5536,37.9728 7.5408,37.96 7.528,37.96 L7.1824,37.96 C7.1312,37.96 7.0928,37.9856 7.0928,38.0368 L6.7088,39.2912 L6.2864,38.0368 C6.2736,37.9856 6.2352,37.96 6.1968,37.96 L5.8256,37.96 C5.7872,37.96 5.7488,37.9984 5.7488,38.0368 C5.7488,38.0496 5.7488,38.0624 5.7616,38.0752 L6.3376,39.7008 C6.3504,39.752 6.3888,39.7776 6.44,39.7776 L6.9136,39.7776 C6.9776,39.8032 7.0288,39.7648 7.0288,39.7136" id="Path"></path>
                        <path d="M7.9376,37.96 C7.8992,37.96 7.8608,37.9984 7.8608,38.0368 L7.8608,38.0368 L7.8608,39.7008 C7.8608,39.7392 7.8992,39.7776 7.9376,39.7776 L8.2704,39.7776 C8.3088,39.7776 8.3472,39.7392 8.3472,39.7008 L8.3472,38.0368 C8.3472,37.9984 8.3088,37.96 8.2704,37.96 L8.2704,37.96 L7.9376,37.96 Z" id="Path"></path>
                        <path d="M9.832,37.9088 C9.6016,37.896 9.3712,37.9984 9.2304,38.1776 L9.2304,38.0496 C9.2304,38.0112 9.192,37.9728 9.1536,37.9728 L8.8208,37.9728 C8.7824,37.9728 8.744,38.0112 8.744,38.0496 C8.744,38.0496 8.744,38.0496 8.744,38.0496 L8.744,39.7136 C8.744,39.752 8.7824,39.7904 8.8208,39.7904 L8.8208,39.7904 L9.1536,39.7904 C9.192,39.7904 9.2304,39.7648 9.2304,39.7136 L9.2304,38.8304 C9.2176,38.5872 9.3968,38.3696 9.64,38.3568 C9.6528,38.3568 9.6784,38.3568 9.6912,38.3568 C9.9216,38.344 10.1264,38.5232 10.1392,38.7664 C10.1392,38.792 10.1392,38.8176 10.1392,38.8304 L10.1392,39.7008 C10.1392,39.7392 10.1776,39.7776 10.216,39.7776 L10.5488,39.7776 C10.5872,39.7776 10.6256,39.752 10.6256,39.7008 L10.6256,38.6896 C10.6512,38.28 10.3312,37.9216 9.9216,37.896 C9.8832,37.896 9.8576,37.896 9.832,37.9088" id="Path"></path>
                        <path d="M11.88,39.368 C11.5984,39.3808 11.368,39.1504 11.3552,38.8816 C11.3424,38.6 11.5728,38.3696 11.8416,38.3568 C12.1232,38.344 12.3536,38.5744 12.3664,38.8432 C12.3664,38.8432 12.3664,38.856 12.3664,38.856 C12.3792,39.1248 12.1872,39.3424 11.9184,39.3552 C11.9184,39.368 11.8928,39.368 11.88,39.368 M11.88,40.2384 C11.6752,40.264 11.496,40.1488 11.4192,39.9568 C11.4064,39.9312 11.368,39.9056 11.3296,39.9184 L10.9712,40.008 C10.9456,40.0208 10.92,40.0464 10.9328,40.072 C10.9328,40.072 10.9328,40.072 10.9328,40.072 C11.0224,40.4176 11.368,40.6352 11.8544,40.6352 C12.4688,40.6352 12.84,40.2768 12.84,39.7776 L12.84,38.0112 C12.84,37.9728 12.8016,37.9344 12.7632,37.9344 C12.7632,37.9344 12.7632,37.9344 12.7632,37.9344 L12.4304,37.9344 C12.392,37.9344 12.3536,37.9728 12.3536,38.0112 L12.3536,38.0112 L12.3536,38.1648 C12.2256,37.9856 12.008,37.8704 11.7776,37.8832 C11.2528,37.8832 10.8304,38.3184 10.8304,38.8432 C10.8304,39.368 11.2656,39.7904 11.7904,39.7904 C12.008,39.8032 12.2128,39.7008 12.3408,39.5344 L12.3408,39.7776 C12.3536,40.0208 12.1744,40.2256 11.9312,40.2384 C11.944,40.2512 11.9184,40.2512 11.88,40.2384" id="Shape"></path>
                        <path d="M14.7728,39.7904 C14.824,39.7904 14.8624,39.7648 14.8752,39.7136 C14.8752,39.7136 14.8752,39.7008 14.8752,39.7008 L14.8752,39.4576 C14.8752,39.4192 14.8496,39.3936 14.8112,39.3808 C14.8112,39.3808 14.7984,39.3808 14.7984,39.3808 L14.6832,39.3808 C14.6064,39.3808 14.5552,39.3296 14.5424,39.2656 C14.5424,39.2528 14.5424,39.2528 14.5424,39.24 L14.5424,37.2176 C14.5424,37.1792 14.504,37.1408 14.4656,37.1408 L14.1328,37.1408 C14.0944,37.1408 14.056,37.1792 14.056,37.2176 L14.056,39.3424 C14.0304,39.5728 14.1968,39.7776 14.4272,39.8032 C14.4656,39.8032 14.504,39.8032 14.5424,39.8032 L14.7728,39.8032 L14.7728,39.7904 Z" id="Path"></path>
                        <path d="M15.5152,37.96 L15.1824,37.96 C15.144,37.96 15.1056,37.9984 15.1056,38.0368 L15.1056,38.0368 L15.1056,39.7008 C15.1056,39.7392 15.144,39.7776 15.1824,39.7776 L15.5152,39.7776 C15.5536,39.7776 15.592,39.7392 15.6048,39.7008 L15.6048,38.0368 C15.6048,37.9984 15.5664,37.96 15.5152,37.96 L15.5152,37.96" id="Path"></path>
                        <path d="M16.5264,39.7904 L17,39.7904 C17.0512,39.7904 17.0896,39.752 17.1024,39.7136 L17.6784,38.088 C17.704,38.0496 17.6784,37.9984 17.64,37.9728 C17.6272,37.9728 17.6144,37.96 17.6016,37.96 L17.256,37.96 C17.2048,37.96 17.1664,37.9856 17.1664,38.0368 L16.7824,39.2912 L16.3728,38.0368 C16.36,37.9856 16.3216,37.96 16.2832,37.96 L15.912,37.96 C15.8736,37.96 15.8352,37.9984 15.8352,38.0368 C15.8352,38.0496 15.8352,38.0624 15.848,38.0752 L16.424,39.7008 C16.4368,39.7648 16.4752,39.8032 16.5264,39.7904" id="Path"></path>
                        <path d="M18.3056,38.6896 C18.344,38.472 18.536,38.3056 18.7536,38.3056 C18.984,38.3056 19.176,38.472 19.2016,38.6896 L18.3056,38.6896 Z M18.7536,37.9088 C18.2288,37.9088 17.8064,38.3312 17.8064,38.856 C17.8064,38.8688 17.8064,38.8688 17.8064,38.8816 C17.832,39.432 18.2928,39.8672 18.856,39.8416 C19.1376,39.8288 19.3936,39.7008 19.5728,39.496 C19.5984,39.4576 19.5984,39.4192 19.56,39.3936 C19.56,39.3936 19.56,39.3936 19.56,39.3936 L19.3168,39.2272 C19.2784,39.2016 19.24,39.2272 19.2144,39.24 C19.112,39.368 18.9456,39.4448 18.792,39.432 C18.5488,39.432 18.344,39.2528 18.3184,39.0096 L19.624,39.0096 C19.688,39.0096 19.7136,38.9712 19.7136,38.92 L19.7136,38.8304 C19.7136,38.3312 19.3168,37.9216 18.8176,37.9216 C18.8048,37.9216 18.792,37.9216 18.7792,37.9216" id="Shape"></path>
                        <path d="M20.6608,39.8416 C21.1344,39.8416 21.48,39.5856 21.48,39.2272 C21.48,38.8688 21.2368,38.7536 20.9168,38.6768 L20.6224,38.6256 C20.456,38.6 20.3792,38.536 20.3792,38.4464 C20.3792,38.3568 20.4816,38.28 20.648,38.28 C20.8016,38.2928 20.9552,38.344 21.0832,38.4336 C21.1472,38.472 21.2112,38.472 21.2496,38.4336 L21.3648,38.2928 C21.4032,38.2544 21.416,38.2032 21.3776,38.152 C21.3776,38.152 21.3648,38.1392 21.3648,38.1392 C21.16,37.9728 20.904,37.896 20.648,37.896 C20.1744,37.896 19.88,38.152 19.88,38.4848 C19.88,38.7664 20.0976,38.9968 20.3664,39.0224 L20.6608,39.0864 C20.8528,39.1248 20.9552,39.1632 20.9552,39.2656 C20.9552,39.368 20.8656,39.4448 20.6608,39.4448 C20.4816,39.4448 20.3152,39.3808 20.1872,39.2528 C20.136,39.2016 20.072,39.2016 20.0208,39.2528 C20.0208,39.2528 20.0208,39.2528 20.0208,39.2528 L19.88,39.368 C19.8032,39.432 19.7904,39.5216 19.9312,39.624 C20.136,39.7648 20.3792,39.8416 20.6352,39.8416" id="Path"></path>
                        <path d="M22.3888,39.5088 C22.3888,39.3296 22.2352,39.176 22.056,39.176 C21.8768,39.176 21.7232,39.3296 21.7232,39.5088 C21.7232,39.688 21.8768,39.8416 22.056,39.8416 C22.2352,39.8416 22.3888,39.7008 22.3888,39.5088" id="Path"></path>
                        <path d="M24.04,37.1408 L23.6944,37.1408 C23.656,37.1408 23.6176,37.1792 23.6176,37.2176 L23.6176,39.7136 C23.6176,39.752 23.656,39.7904 23.6944,39.8032 C23.6944,39.8032 23.6944,39.8032 23.6944,39.8032 L24.04,39.8032 C24.0784,39.8032 24.1168,39.7648 24.1168,39.7136 C24.1168,39.7136 24.1168,39.7136 24.1168,39.7136 L24.1168,37.2176 C24.1168,37.1664 24.0912,37.1408 24.04,37.1408" id="Path"></path>
                        <path d="M25.832,38.8048 L25.832,39.7136 C25.832,39.752 25.8704,39.7904 25.9088,39.7904 L26.2416,39.7904 C26.28,39.7904 26.3184,39.7648 26.3184,39.7136 L26.3184,38.792 C26.2928,38.5744 26.4592,38.3696 26.6768,38.3568 C26.6896,38.3568 26.7152,38.3568 26.728,38.3568 C26.9456,38.3568 27.112,38.5232 27.1248,38.728 C27.1248,38.7536 27.1248,38.7664 27.1248,38.792 L27.1248,39.7136 C27.1248,39.752 27.1632,39.7904 27.2016,39.7904 C27.2016,39.7904 27.2016,39.7904 27.2016,39.7904 L27.5344,39.7904 C27.5728,39.7904 27.6112,39.7648 27.6112,39.7136 L27.6112,38.6768 C27.6368,38.2672 27.3168,37.9216 26.92,37.9088 C26.8944,37.9088 26.8688,37.9088 26.8304,37.9088 C26.5744,37.9088 26.3312,38.024 26.1776,38.2288 C26.0624,38.024 25.832,37.896 25.5888,37.9088 C25.3712,37.9088 25.1536,38.0112 25.0256,38.1776 L25.0256,38.0496 C25.0256,38.0112 24.9872,37.9728 24.9488,37.9728 L24.616,37.9728 C24.5776,37.9728 24.5392,38.0112 24.5392,38.0496 C24.5392,38.0496 24.5392,38.0496 24.5392,38.0496 L24.5392,39.7136 C24.5392,39.752 24.5776,39.7904 24.616,39.7904 L24.616,39.7904 L24.9488,39.7904 C24.9872,39.7904 25.0256,39.7648 25.0256,39.7136 L25.0256,38.792 C25,38.5744 25.1664,38.3696 25.384,38.3568 C25.3968,38.3568 25.4224,38.3568 25.4352,38.3568 C25.6528,38.3568 25.8192,38.5232 25.832,38.728 C25.8448,38.7664 25.8448,38.7792 25.832,38.8048" id="Path"></path>
                        <path d="M28.4816,38.8816 C28.4944,38.6128 28.7248,38.3952 28.9936,38.408 C29.2624,38.4208 29.48,38.6512 29.4672,38.92 C29.4544,39.176 29.2368,39.3936 28.9808,39.3936 C28.712,39.3936 28.4816,39.1632 28.4816,38.8944 C28.4816,38.8816 28.4816,38.8816 28.4816,38.8816 M29.9536,38.8816 C29.9792,38.3824 29.5824,37.9472 29.0832,37.9344 C29.0704,37.9344 29.0576,37.9344 29.0576,37.9344 C28.8272,37.9216 28.6096,38.024 28.4816,38.216 L28.4816,38.0624 C28.4816,38.024 28.456,37.9856 28.4048,37.9856 C28.4048,37.9856 28.4048,37.9856 28.4048,37.9856 L28.072,37.9856 C28.0336,37.9856 27.9952,38.024 27.9952,38.0624 C27.9952,38.0624 27.9952,38.0624 27.9952,38.0624 L27.9952,40.5584 C27.9952,40.5968 28.0336,40.6352 28.072,40.6352 L28.072,40.6352 L28.4048,40.6352 C28.4432,40.6352 28.4816,40.5968 28.4816,40.5584 L28.4816,40.5584 L28.4816,39.6112 C28.6224,39.7776 28.8272,39.88 29.0448,39.8672 C29.5568,39.8672 29.9664,39.4448 29.9536,38.9456 C29.9536,38.8944 29.9536,38.8816 29.9536,38.8816" id="Shape"></path>
                        <path d="M30.7472,39.7136 L30.7472,38.8944 C30.7472,38.5744 30.888,38.4592 31.1312,38.4592 L31.2208,38.4592 C31.272,38.4592 31.3104,38.4208 31.3104,38.3696 C31.3104,38.3696 31.3104,38.3696 31.3104,38.3696 L31.3104,38.0624 C31.3232,38.0112 31.2848,37.9728 31.2464,37.9728 C31.2464,37.9728 31.2336,37.9728 31.2336,37.9728 L31.1824,37.9728 C30.9904,37.9728 30.824,38.0752 30.7344,38.2416 L30.7344,38.0624 C30.7344,38.024 30.696,37.9984 30.6576,37.9856 L30.3376,37.9856 C30.2992,37.9856 30.2608,38.024 30.2608,38.0624 C30.2608,38.0624 30.2608,38.0624 30.2608,38.0624 L30.2608,39.7264 C30.2608,39.7648 30.2992,39.8032 30.3376,39.8032 L30.3376,39.8032 L30.6704,39.8032 C30.7088,39.7904 30.7472,39.7648 30.7472,39.7136" id="Path"></path>
                        <path d="M32.3984,39.3936 C32.1168,39.4064 31.8736,39.1888 31.8608,38.9072 C31.848,38.6256 32.0656,38.3824 32.3472,38.3696 C32.6288,38.3568 32.872,38.5744 32.8848,38.856 C32.8848,38.8688 32.8848,38.8688 32.8848,38.8816 C32.8976,39.1504 32.68,39.3808 32.4112,39.3936 C32.4112,39.3936 32.4112,39.3936 32.3984,39.3936 M33.384,38.8816 C33.3968,38.344 32.9744,37.8832 32.4368,37.8704 C31.8992,37.8576 31.4384,38.28 31.4256,38.8176 C31.4128,39.3552 31.8352,39.816 32.3728,39.8288 C32.3856,39.8288 32.3984,39.8288 32.3984,39.8288 C32.936,39.8416 33.3712,39.4192 33.384,38.8816" id="Shape"></path>
                        <path d="M34.8944,37.96 C34.8432,37.96 34.8048,37.9856 34.8048,38.0368 L34.4208,39.2912 L34.0112,38.0368 C33.9984,37.9856 33.96,37.96 33.9216,37.96 L33.5504,37.96 C33.512,37.96 33.4736,37.9984 33.4736,38.0368 C33.4736,38.0496 33.4736,38.0624 33.4864,38.0752 L34.0624,39.7136 C34.0752,39.7648 34.1136,39.7904 34.1648,39.7904 L34.6384,39.7904 C34.6896,39.7904 34.728,39.752 34.7408,39.7136 L35.3168,38.0752 C35.3296,38.0368 35.3168,37.9856 35.2784,37.96 C35.2656,37.96 35.2528,37.9472 35.24,37.9472 L34.8944,37.96 Z" id="Path"></path>
                        <path d="M36.072,39.7136 L36.072,38.0496 C36.072,38.0112 36.0336,37.9728 35.9952,37.9728 C35.9952,37.9728 35.9952,37.9728 35.9952,37.9728 L35.6624,37.9728 C35.624,37.9728 35.5856,38.0112 35.5856,38.0496 C35.5856,38.0496 35.5856,38.0496 35.5856,38.0496 L35.5856,39.7136 C35.5856,39.752 35.624,39.7904 35.6624,39.7904 L35.9952,39.7904 C36.0336,39.7904 36.072,39.752 36.072,39.7136" id="Path"></path>
                        <path d="M37.544,37.9088 C37.3136,37.896 37.0832,37.9984 36.9424,38.1776 L36.9424,38.0496 C36.9424,38.0112 36.904,37.9728 36.8656,37.9728 L36.5328,37.9728 C36.4944,37.9728 36.456,38.0112 36.456,38.0496 C36.456,38.0496 36.456,38.0496 36.456,38.0496 L36.456,39.7136 C36.456,39.752 36.4944,39.7904 36.5328,39.7904 L36.5328,39.7904 L36.8656,39.7904 C36.904,39.7904 36.9424,39.7648 36.9424,39.7136 L36.9424,38.8304 C36.9296,38.5872 37.1088,38.3696 37.352,38.3568 C37.3648,38.3568 37.3904,38.3568 37.4032,38.3568 C37.6336,38.344 37.8384,38.5232 37.8512,38.7664 C37.8512,38.792 37.8512,38.8176 37.8512,38.8304 L37.8512,39.7008 C37.8512,39.7392 37.8896,39.7776 37.928,39.7776 L38.2608,39.7776 C38.2992,39.7776 38.3376,39.752 38.3376,39.7008 L38.3376,38.6896 C38.3632,38.28 38.0432,37.9216 37.6336,37.896 C37.5952,37.896 37.5696,37.896 37.544,37.9088" id="Path"></path>
                        <path d="M39.6048,39.368 C39.3232,39.3808 39.0928,39.1504 39.08,38.8816 C39.0672,38.6 39.2976,38.3696 39.5664,38.3568 C39.8352,38.344 40.0784,38.5744 40.0912,38.8432 C40.0912,38.8432 40.0912,38.856 40.0912,38.856 C40.104,39.1248 39.912,39.3424 39.6432,39.3552 C39.6304,39.368 39.6176,39.368 39.6048,39.368 M40.5008,37.96 L40.168,37.96 C40.1296,37.96 40.0912,37.9984 40.0912,38.0368 L40.0912,38.0368 L40.0912,38.1904 C39.9632,38.0112 39.7456,37.896 39.5152,37.9088 C38.9904,37.9088 38.568,38.344 38.568,38.8688 C38.568,39.3936 39.0032,39.816 39.528,39.816 C39.7456,39.8288 39.9504,39.7264 40.0784,39.56 L40.0784,39.8032 C40.0656,40.072 39.8352,40.2896 39.5536,40.2768 C39.3616,40.264 39.1952,40.1488 39.1312,39.9824 C39.1184,39.9568 39.08,39.9312 39.0416,39.944 L38.6832,40.0336 C38.6576,40.0464 38.632,40.072 38.6448,40.0976 C38.6448,40.0976 38.6448,40.0976 38.6448,40.0976 C38.7344,40.4432 39.08,40.6608 39.5664,40.6608 C40.1808,40.6608 40.552,40.3024 40.552,39.8032 L40.552,38.0368 C40.5776,37.9984 40.5392,37.9728 40.5008,37.96 C40.5008,37.9728 40.5008,37.9728 40.5008,37.96" id="Shape"></path>
                        <path d="M42.8944,37.9088 C42.664,37.896 42.4336,37.9984 42.2928,38.1776 L42.2928,37.2048 C42.2928,37.1664 42.2544,37.128 42.216,37.128 L41.8832,37.128 C41.8448,37.128 41.8064,37.1664 41.8064,37.2048 L41.8064,37.2048 L41.8064,39.7008 C41.8064,39.7392 41.8448,39.7776 41.8832,39.7776 L41.8832,39.7776 L42.216,39.7776 C42.2544,39.7776 42.2928,39.752 42.2928,39.7008 L42.2928,38.8176 C42.28,38.5744 42.4592,38.3568 42.7024,38.344 C42.7152,38.344 42.7408,38.344 42.7536,38.344 C42.984,38.3312 43.1888,38.5104 43.2016,38.7536 C43.2016,38.7792 43.2016,38.8048 43.2016,38.8304 L43.2016,39.7136 C43.2016,39.752 43.24,39.7904 43.2784,39.7904 L43.6112,39.7904 C43.6496,39.7904 43.688,39.7648 43.688,39.7136 L43.688,38.7024 C43.7136,38.2928 43.3936,37.9344 42.984,37.9088 C42.9456,37.896 42.92,37.896 42.8944,37.9088" id="Path"></path>
                        <path d="M44.4688,38.6896 C44.5072,38.472 44.6992,38.3056 44.9168,38.3056 C45.1472,38.3056 45.3392,38.472 45.3648,38.6896 L44.4688,38.6896 Z M44.9168,37.9088 C44.392,37.9088 43.9696,38.3312 43.9696,38.856 C43.9696,38.8688 43.9696,38.8688 43.9696,38.8816 C43.9952,39.432 44.456,39.8672 45.0192,39.8416 C45.3008,39.8288 45.5568,39.7008 45.736,39.496 C45.7616,39.4576 45.7616,39.4192 45.7232,39.3936 C45.7232,39.3936 45.7232,39.3936 45.7232,39.3936 L45.48,39.2272 C45.4416,39.2016 45.4032,39.2272 45.3776,39.24 C45.2752,39.368 45.1088,39.4448 44.9552,39.432 C44.712,39.432 44.5072,39.2528 44.4816,39.0096 L45.7872,39.0096 C45.8512,39.0096 45.8768,38.9712 45.8768,38.92 L45.8768,38.8304 C45.8768,38.3312 45.48,37.9216 44.9808,37.9216 C44.968,37.9216 44.9552,37.9216 44.9424,37.9216" id="Shape"></path>
                        <path d="M47.0672,39.3936 C46.7856,39.3936 46.5552,39.1632 46.5552,38.8816 C46.5552,38.6 46.7856,38.3696 47.0672,38.3696 C47.3488,38.3696 47.5792,38.6 47.5792,38.8816 C47.5792,39.1632 47.3488,39.3936 47.0672,39.3936 M47.9632,37.96 L47.6304,37.96 C47.592,37.96 47.5536,37.9984 47.5536,38.0368 L47.5536,38.1776 C47.4256,37.9984 47.2208,37.896 46.9904,37.896 C46.4528,37.9216 46.0432,38.3824 46.0688,38.9072 C46.0944,39.4064 46.4912,39.8032 46.9904,39.8288 C47.208,39.8416 47.4256,39.7392 47.5536,39.5472 L47.5536,39.688 C47.5536,39.7264 47.592,39.7648 47.6304,39.7648 L47.6304,39.7648 L47.9632,39.7648 C48.0016,39.7648 48.04,39.7264 48.04,39.688 L48.04,39.688 L48.04,38.024 C48.0528,37.9984 48.0144,37.9728 47.9632,37.96 C47.976,37.96 47.976,37.96 47.9632,37.96" id="Shape"></path>
                        <path d="M49.1664,39.3808 L49.0512,39.3808 C48.9744,39.3808 48.9232,39.3296 48.9104,39.2656 C48.9104,39.2528 48.9104,39.2528 48.9104,39.24 L48.9104,37.2176 C48.9104,37.1792 48.872,37.1408 48.8336,37.1408 L48.5008,37.1408 C48.4624,37.1408 48.424,37.1792 48.424,37.2176 L48.424,39.3424 C48.3984,39.5728 48.5648,39.7776 48.7952,39.8032 C48.8336,39.8032 48.872,39.8032 48.9104,39.8032 L49.1536,39.8032 C49.2048,39.8032 49.2432,39.7776 49.256,39.7264 C49.256,39.7264 49.256,39.7136 49.256,39.7136 L49.256,39.4704 C49.256,39.432 49.2304,39.3936 49.192,39.3936 C49.1792,39.3808 49.1664,39.3808 49.1664,39.3808" id="Path"></path>
                        <path d="M50.6128,39.3424 C50.5744,39.2912 50.5232,39.2912 50.4592,39.3296 C50.408,39.368 50.344,39.3808 50.28,39.3808 C50.1648,39.3808 50.0752,39.2912 50.0624,39.176 C50.0624,39.1632 50.0624,39.1504 50.0624,39.1376 L50.0624,38.3696 L50.5872,38.3696 C50.6256,38.3696 50.664,38.3312 50.664,38.2928 L50.664,38.0496 C50.664,38.0112 50.6256,37.9728 50.5872,37.9728 L50.088,37.9728 L50.088,37.4608 C50.088,37.4224 50.0624,37.384 50.0112,37.384 C50.0112,37.384 50.0112,37.384 50.0112,37.384 L49.6784,37.384 C49.64,37.384 49.6016,37.4224 49.6016,37.4608 C49.6016,37.4608 49.6016,37.4608 49.6016,37.4608 L49.6016,37.9728 L49.3456,37.9728 C49.3072,37.9728 49.2688,38.0112 49.2688,38.0496 C49.2688,38.0496 49.2688,38.0496 49.2688,38.0496 L49.2688,38.2928 C49.2688,38.3312 49.3072,38.3696 49.3456,38.3696 L49.6016,38.3696 L49.6016,39.2528 C49.5888,39.56 49.832,39.816 50.1392,39.8288 C50.1648,39.8288 50.1904,39.8288 50.216,39.8288 C50.408,39.8416 50.5872,39.7648 50.728,39.6496 C50.7664,39.6112 50.7664,39.56 50.728,39.5216 L50.6128,39.3424 Z" id="Path"></path>
                        <path d="M52.0592,37.9088 C51.8288,37.896 51.5984,37.9984 51.4576,38.1776 L51.4576,37.2048 C51.4576,37.1664 51.4192,37.128 51.3808,37.128 L51.048,37.128 C51.0096,37.128 50.9712,37.1664 50.9712,37.2048 L50.9712,37.2048 L50.9712,39.7008 C50.9712,39.7392 51.0096,39.7776 51.048,39.7776 L51.048,39.7776 L51.3808,39.7776 C51.4192,39.7776 51.4576,39.752 51.4576,39.7008 L51.4576,38.8176 C51.4448,38.5744 51.624,38.3568 51.8672,38.344 C51.88,38.344 51.9056,38.344 51.9184,38.344 C52.1488,38.3312 52.3536,38.5104 52.3664,38.7536 C52.3664,38.7792 52.3664,38.8048 52.3664,38.8176 L52.3664,39.7008 C52.3664,39.7392 52.4048,39.7776 52.4432,39.7776 L52.776,39.7776 C52.8144,39.7776 52.8528,39.752 52.8528,39.7008 L52.8528,38.6896 C52.8784,38.28 52.5584,37.9216 52.1488,37.896 C52.1104,37.896 52.0848,37.896 52.0592,37.9088" id="Path"></path>
                        <path d="M53.5056,39.176 C53.3264,39.176 53.1728,39.3296 53.1728,39.5088 C53.1728,39.688 53.3264,39.8416 53.5056,39.8416 C53.6848,39.8416 53.8384,39.688 53.8384,39.5088 C53.8384,39.3296 53.6976,39.176 53.5056,39.176 C53.5056,39.176 53.5056,39.176 53.5056,39.176" id="Path"></path>
                        <path d="M3.4192,41.8 L3.4192,41.4928 C3.4192,41.4544 3.3808,41.416 3.3424,41.4032 C3.3424,41.4032 3.3424,41.4032 3.3424,41.4032 L1.2432,41.4032 C1.2048,41.4032 1.1664,41.4416 1.1664,41.4928 C1.1664,41.4928 1.1664,41.4928 1.1664,41.4928 L1.1664,41.8 C1.1664,41.8384 1.2048,41.8768 1.2432,41.8768 C1.2432,41.8768 1.2432,41.8768 1.2432,41.8768 L2.0368,41.8768 L2.0368,43.9888 C2.0368,44.0272 2.0752,44.0656 2.1136,44.0784 C2.1136,44.0784 2.1136,44.0784 2.1136,44.0784 L2.472,44.0784 C2.5232,44.0784 2.5488,44.04 2.5616,43.9888 L2.5616,41.8768 L3.3552,41.8768 C3.3936,41.8896 3.4192,41.8512 3.4192,41.8 C3.432,41.8128 3.432,41.8128 3.4192,41.8" id="Path"></path>
                        <path d="M4.2512,42.2224 L4.2,42.2224 C4.008,42.2224 3.8416,42.3248 3.752,42.4912 L3.752,42.3248 C3.752,42.2864 3.7136,42.2608 3.6752,42.248 L3.3552,42.248 C3.3168,42.248 3.2784,42.2864 3.2784,42.3248 C3.2784,42.3248 3.2784,42.3248 3.2784,42.3248 L3.2784,43.9888 C3.2784,44.0272 3.3168,44.0656 3.3552,44.0656 L3.3552,44.0656 L3.688,44.0656 C3.7264,44.0656 3.7648,44.04 3.7648,43.9888 L3.7648,43.1696 C3.7648,42.8496 3.9056,42.7344 4.1488,42.7344 L4.2384,42.7344 C4.2896,42.7344 4.328,42.696 4.328,42.6448 C4.328,42.6448 4.328,42.6448 4.328,42.6448 L4.328,42.3248 C4.3408,42.2736 4.3024,42.2352 4.264,42.2352 C4.2512,42.2352 4.2512,42.2352 4.2512,42.2224" id="Path"></path>
                        <path d="M5.4288,43.6816 C5.1472,43.6816 4.9168,43.4512 4.9168,43.1696 C4.9168,42.888 5.1472,42.6576 5.4288,42.6576 C5.7104,42.6576 5.9408,42.888 5.9408,43.1696 C5.9408,43.4512 5.7104,43.6816 5.4288,43.6816 M6.3248,42.248 L5.992,42.248 C5.9536,42.248 5.9152,42.2864 5.9152,42.3248 C5.9152,42.3248 5.9152,42.3248 5.9152,42.3248 L5.9152,42.4656 C5.7872,42.2864 5.5824,42.1712 5.352,42.184 C4.8144,42.2096 4.4048,42.6704 4.4304,43.1952 C4.456,43.6944 4.8528,44.0912 5.352,44.1168 C5.5696,44.1296 5.7872,44.0272 5.9152,43.8352 L5.9152,43.976 C5.9152,44.0144 5.9536,44.0528 5.992,44.0528 L5.992,44.0528 L6.312,44.0528 C6.3504,44.0528 6.3888,44.0144 6.3888,43.976 L6.3888,43.976 L6.3888,42.312 C6.4016,42.2864 6.3632,42.248 6.3248,42.248 C6.3248,42.248 6.3248,42.248 6.3248,42.248" id="Shape"></path>
                        <path d="M7.8864,42.1968 C7.656,42.184 7.4256,42.2864 7.2848,42.4656 L7.2848,42.3376 C7.2848,42.2992 7.2464,42.2608 7.208,42.2608 L6.8752,42.2608 C6.8368,42.2608 6.7984,42.2992 6.7984,42.3376 C6.7984,42.3376 6.7984,42.3376 6.7984,42.3376 L6.7984,44.0016 C6.7984,44.04 6.8368,44.0784 6.8752,44.0784 L6.8752,44.0784 L7.208,44.0784 C7.2464,44.0784 7.2848,44.0528 7.2848,44.0016 L7.2848,43.1184 C7.272,42.8752 7.4512,42.6576 7.6944,42.6448 C7.7072,42.6448 7.7328,42.6448 7.7456,42.6448 C7.976,42.632 8.1808,42.8112 8.1936,43.0544 C8.1936,43.08 8.1936,43.1056 8.1936,43.1184 L8.1936,43.9888 C8.1936,44.0272 8.232,44.0656 8.2704,44.0656 L8.6032,44.0656 C8.6416,44.0656 8.68,44.04 8.68,43.9888 L8.68,42.9776 C8.7056,42.568 8.3856,42.2096 7.976,42.184 C7.9376,42.184 7.912,42.184 7.8864,42.1968" id="Path"></path>
                        <path d="M10.0112,42.9648 L9.7168,42.9136 C9.5504,42.888 9.4736,42.824 9.4736,42.7344 C9.4736,42.6448 9.576,42.568 9.7424,42.568 C9.896,42.5808 10.0496,42.632 10.1776,42.7216 C10.2416,42.76 10.3056,42.76 10.344,42.7216 L10.4592,42.5808 C10.4976,42.5424 10.5104,42.4784 10.472,42.44 C10.472,42.44 10.4592,42.4272 10.4592,42.4272 C10.2544,42.2608 9.9984,42.184 9.7424,42.184 C9.2688,42.184 8.9744,42.44 8.9744,42.7728 C8.9744,43.0544 9.192,43.2848 9.4608,43.3104 L9.7552,43.3744 C9.9472,43.4128 10.0496,43.4512 10.0496,43.5536 C10.0496,43.656 9.96,43.7328 9.7552,43.7328 C9.576,43.7328 9.4096,43.6688 9.2816,43.5408 C9.2304,43.4896 9.1664,43.4896 9.1152,43.5408 C9.1152,43.5408 9.1152,43.5408 9.1152,43.5408 L8.9744,43.656 C8.8976,43.72 8.8848,43.8096 9.0256,43.912 C9.2304,44.0528 9.4736,44.1296 9.7168,44.1296 C10.1904,44.1296 10.536,43.8736 10.536,43.5152 C10.536,43.1568 10.2928,43.0416 9.9728,42.9648" id="Path"></path>
                        <path d="M12.1872,41.4928 C12.0464,41.3776 11.8672,41.3136 11.688,41.3136 C11.3552,41.288 11.0608,41.544 11.0352,41.8768 C11.0352,41.9024 11.0352,41.928 11.0352,41.9536 L11.0352,42.248 L10.792,42.248 C10.7536,42.248 10.7152,42.2864 10.7152,42.3248 C10.7152,42.3248 10.7152,42.3248 10.7152,42.3248 L10.7152,42.568 C10.7152,42.6064 10.7536,42.6448 10.792,42.6448 L11.0352,42.6448 L11.0352,43.9888 C11.0352,44.0272 11.0736,44.0656 11.112,44.0656 L11.4448,44.0656 C11.4832,44.0656 11.5216,44.0272 11.5216,43.9888 L11.5216,42.6448 L11.88,42.6448 C11.9184,42.6448 11.9568,42.6064 11.9568,42.568 L11.9568,42.3248 C11.9568,42.2864 11.9184,42.248 11.88,42.248 L11.5216,42.248 L11.5216,42.0048 C11.5088,41.8896 11.5856,41.7872 11.7008,41.7744 C11.7136,41.7744 11.7136,41.7744 11.7264,41.7744 C11.7904,41.7744 11.8544,41.8 11.9056,41.8384 C11.944,41.864 12.008,41.8896 12.0464,41.8384 L12.1872,41.6464 C12.2256,41.608 12.2256,41.5568 12.1872,41.5184" id="Path"></path>
                        <path d="M13.0448,43.6688 C12.7632,43.6816 12.52,43.464 12.5072,43.1824 C12.4944,42.9008 12.712,42.6576 12.9936,42.6448 C13.2752,42.632 13.5184,42.8496 13.5312,43.1312 C13.5312,43.144 13.5312,43.144 13.5312,43.1568 C13.544,43.4256 13.3264,43.656 13.0576,43.6688 C13.0576,43.6688 13.0448,43.6688 13.0448,43.6688 M13.0448,42.1968 C12.5072,42.2096 12.0848,42.6448 12.0848,43.1824 C12.0976,43.72 12.5328,44.1424 13.0704,44.1424 C13.5952,44.1296 14.0176,43.7072 14.0304,43.1824 C14.0304,42.6448 13.5952,42.2096 13.0704,42.2096 C13.0576,42.1968 13.0448,42.1968 13.0448,42.1968" id="Shape"></path>
                        <path d="M15.2848,42.2224 L15.2336,42.2224 C15.0416,42.2224 14.8752,42.3248 14.7856,42.4912 L14.7856,42.3248 C14.7856,42.2864 14.7472,42.2608 14.7088,42.248 L14.3888,42.248 C14.3504,42.248 14.312,42.2864 14.312,42.3248 C14.312,42.3248 14.312,42.3248 14.312,42.3248 L14.312,43.9888 C14.312,44.0272 14.3504,44.0656 14.3888,44.0656 L14.3888,44.0656 L14.7216,44.0656 C14.76,44.0656 14.7984,44.04 14.7984,43.9888 L14.7984,43.1696 C14.7984,42.8496 14.9392,42.7344 15.1824,42.7344 L15.272,42.7344 C15.3232,42.7344 15.3616,42.696 15.3616,42.6448 C15.3616,42.6448 15.3616,42.6448 15.3616,42.6448 L15.3616,42.3248 C15.3744,42.2736 15.336,42.2352 15.2976,42.2352 C15.2976,42.2352 15.2976,42.2352 15.2848,42.2224" id="Path"></path>
                        <path d="M17.9216,42.1968 C17.6656,42.1968 17.4224,42.312 17.2688,42.5168 C17.1536,42.312 16.9232,42.184 16.68,42.1968 C16.4624,42.1968 16.2448,42.2992 16.1168,42.4656 L16.1168,42.3376 C16.1168,42.2992 16.0784,42.2736 16.04,42.2608 L15.7072,42.2608 C15.6688,42.2608 15.6304,42.2992 15.6304,42.3376 C15.6304,42.3376 15.6304,42.3376 15.6304,42.3376 L15.6304,44.0016 C15.6304,44.04 15.6688,44.0784 15.7072,44.0784 L15.7072,44.0784 L16.04,44.0784 C16.0784,44.0784 16.1168,44.0528 16.1168,44.0016 L16.1168,43.08 C16.0912,42.8624 16.2576,42.6576 16.4752,42.6448 C16.488,42.6448 16.5136,42.6448 16.5264,42.6448 C16.744,42.6448 16.9104,42.8112 16.9232,43.016 C16.9232,43.0416 16.9232,43.0544 16.9232,43.08 L16.9232,43.9888 C16.9232,44.0272 16.9616,44.0656 17,44.0656 L17.3328,44.0656 C17.3712,44.0656 17.4096,44.04 17.4096,43.9888 L17.4096,43.08 C17.384,42.8624 17.5504,42.6576 17.768,42.6448 C17.7808,42.6448 17.8064,42.6448 17.8192,42.6448 C18.0368,42.6448 18.2032,42.8112 18.216,43.016 C18.216,43.0416 18.216,43.0544 18.216,43.08 L18.216,44.0016 C18.216,44.04 18.2544,44.0784 18.2928,44.0784 L18.6256,44.0784 C18.664,44.0784 18.7024,44.0528 18.7024,44.0016 C18.7024,44.0016 18.7024,44.0016 18.7024,44.0016 L18.7024,42.9648 C18.728,42.5552 18.408,42.2096 18.0112,42.1968 C17.9728,42.184 17.9472,42.184 17.9216,42.1968" id="Path"></path>
                        <path d="M19.3168,41.3904 C19.1504,41.3904 19.0096,41.5184 19.0096,41.6976 C19.0096,41.864 19.1376,42.0048 19.3168,42.0048 C19.4832,42.0048 19.624,41.8768 19.624,41.6976 C19.624,41.6976 19.624,41.6976 19.624,41.6976 C19.624,41.5312 19.4832,41.3904 19.3168,41.3904" id="Path"></path>
                        <path d="M19.4832,42.248 L19.1504,42.248 C19.112,42.248 19.0736,42.2864 19.0736,42.3248 C19.0736,42.3248 19.0736,42.3248 19.0736,42.3248 L19.0736,43.9888 C19.0736,44.0272 19.112,44.0656 19.1504,44.0656 L19.4832,44.0656 C19.5216,44.0656 19.56,44.0272 19.56,43.9888 L19.56,42.3248 C19.56,42.2864 19.5216,42.248 19.4832,42.248 C19.4832,42.248 19.4832,42.248 19.4832,42.248" id="Path"></path>
                        <path d="M21.0448,42.1968 C20.8144,42.184 20.584,42.2864 20.4432,42.4656 L20.4432,42.3376 C20.4432,42.2992 20.4048,42.2608 20.3664,42.2608 L20.0336,42.2608 C19.9952,42.2608 19.9568,42.2992 19.9568,42.3376 C19.9568,42.3376 19.9568,42.3376 19.9568,42.3376 L19.9568,44.0016 C19.9568,44.04 19.9952,44.0784 20.0336,44.0784 L20.0336,44.0784 L20.3664,44.0784 C20.4048,44.0784 20.4432,44.0528 20.4432,44.0016 L20.4432,43.1184 C20.4304,42.8752 20.6096,42.6576 20.8528,42.6448 C20.8656,42.6448 20.8912,42.6448 20.904,42.6448 C21.1344,42.632 21.3392,42.8112 21.352,43.0544 C21.352,43.08 21.352,43.1056 21.352,43.1184 L21.352,43.9888 C21.352,44.0272 21.3904,44.0656 21.4288,44.0656 L21.7616,44.0656 C21.8,44.0656 21.8384,44.04 21.8384,43.9888 L21.8384,42.9776 C21.864,42.568 21.544,42.2096 21.1344,42.184 C21.096,42.184 21.0704,42.184 21.0448,42.1968" id="Path"></path>
                        <path d="M23.1056,43.656 C22.824,43.6688 22.5936,43.4384 22.5808,43.1696 C22.568,42.888 22.7984,42.6576 23.0672,42.6448 C23.3488,42.632 23.5792,42.8624 23.592,43.1312 C23.592,43.1312 23.592,43.144 23.592,43.144 C23.6048,43.4128 23.4128,43.6304 23.144,43.6432 C23.1312,43.656 23.1184,43.656 23.1056,43.656 M24.0016,42.248 L23.6688,42.248 C23.6304,42.248 23.592,42.2864 23.592,42.3248 L23.592,42.3248 L23.592,42.4784 C23.464,42.2864 23.2464,42.184 23.016,42.1968 C22.4912,42.1968 22.0688,42.632 22.0688,43.1568 C22.0688,43.6816 22.504,44.104 23.0288,44.104 C23.2464,44.1168 23.4512,44.0144 23.5792,43.848 L23.5792,44.0912 C23.5664,44.36 23.336,44.5776 23.0544,44.5648 C22.8624,44.552 22.696,44.4368 22.632,44.2704 C22.6192,44.2448 22.5808,44.2192 22.5424,44.232 L22.184,44.3216 C22.1584,44.3344 22.1328,44.36 22.1456,44.3856 C22.1456,44.3856 22.1456,44.3856 22.1456,44.3856 C22.2352,44.7312 22.5808,44.9488 23.0672,44.9488 C23.6816,44.9488 24.0528,44.5904 24.0528,44.0912 L24.0528,42.3376 C24.0784,42.2864 24.04,42.248 24.0016,42.248 C24.0016,42.248 23.9888,42.248 24.0016,42.248" id="Shape"></path>
                        <path d="M26.6384,41.4928 C26.4976,41.3776 26.3184,41.3136 26.1392,41.3136 C25.8064,41.288 25.512,41.544 25.4864,41.8768 C25.4864,41.9024 25.4864,41.928 25.4864,41.9536 L25.4864,42.248 L25.2432,42.248 C25.2048,42.248 25.1664,42.2864 25.1664,42.3248 L25.1664,42.3248 L25.1664,42.568 C25.1664,42.6064 25.2048,42.6448 25.2432,42.6448 L25.4864,42.6448 L25.4864,43.9888 C25.4864,44.0272 25.5248,44.0656 25.5632,44.0656 L25.896,44.0656 C25.9344,44.0656 25.9728,44.0272 25.9728,43.9888 L25.9728,42.6448 L26.3312,42.6448 C26.3696,42.6448 26.408,42.6064 26.408,42.568 L26.408,42.3248 C26.408,42.2864 26.3696,42.248 26.3312,42.248 L25.9728,42.248 L25.9728,42.0048 C25.96,41.8896 26.0368,41.7872 26.152,41.7744 C26.1648,41.7744 26.1648,41.7744 26.1776,41.7744 C26.2416,41.7744 26.3056,41.8 26.3568,41.8384 C26.3952,41.864 26.4592,41.8896 26.4976,41.8384 L26.6384,41.6464 C26.6768,41.608 26.6768,41.5568 26.6384,41.5184" id="Path"></path>
                        <path d="M28.3536,42.248 L28.0208,42.248 C27.9824,42.248 27.944,42.2736 27.944,42.3248 L27.944,43.272 C27.9696,43.4896 27.8032,43.6816 27.5856,43.7072 C27.56,43.7072 27.5472,43.7072 27.5216,43.7072 C27.304,43.72 27.1248,43.5536 27.112,43.3488 C27.112,43.3232 27.112,43.2976 27.112,43.272 L27.112,42.312 C27.112,42.2736 27.0736,42.2352 27.0352,42.2352 L26.7024,42.2352 C26.664,42.2352 26.6256,42.2608 26.6256,42.312 L26.6256,43.3488 C26.5872,43.7456 26.8816,44.0912 27.2656,44.1296 C27.304,44.1296 27.3424,44.1296 27.368,44.1296 C27.5856,44.1424 27.8032,44.04 27.9312,43.8608 L27.9312,44.0016 C27.9312,44.04 27.9696,44.0784 28.008,44.0784 L28.3408,44.0784 C28.3792,44.0784 28.4176,44.0528 28.4176,44.0016 C28.4176,44.0016 28.4176,44.0016 28.4176,44.0016 L28.4176,42.3376 C28.4432,42.2864 28.4048,42.248 28.3536,42.248 C28.3664,42.248 28.3664,42.248 28.3536,42.248" id="Path"></path>
                        <path d="M30.0176,43.6176 C29.9792,43.5792 29.9152,43.5664 29.8768,43.6048 C29.8768,43.6048 29.8768,43.6048 29.8768,43.6048 C29.8256,43.6432 29.7616,43.656 29.6976,43.656 C29.5824,43.656 29.4928,43.5664 29.48,43.4512 C29.48,43.4384 29.48,43.4256 29.48,43.4128 L29.48,42.6448 L30.0048,42.6448 C30.0432,42.6448 30.0816,42.6064 30.0816,42.568 L30.0816,42.3248 C30.0816,42.2864 30.0432,42.248 30.0048,42.248 L29.48,42.248 L29.48,41.736 C29.48,41.6976 29.4544,41.6592 29.4032,41.6592 C29.4032,41.6592 29.4032,41.6592 29.4032,41.6592 L29.0704,41.6592 C29.032,41.6592 28.9936,41.6976 28.9936,41.736 L28.9936,41.736 L28.9936,42.248 L28.7376,42.248 C28.6992,42.248 28.6608,42.2864 28.6608,42.3248 C28.6608,42.3248 28.6608,42.3248 28.6608,42.3248 L28.6608,42.568 C28.6608,42.6064 28.6992,42.6448 28.7376,42.6448 C28.7376,42.6448 28.7376,42.6448 28.7376,42.6448 L28.9936,42.6448 L28.9936,43.528 C28.9808,43.8352 29.224,44.0912 29.5184,44.104 C29.544,44.104 29.5696,44.104 29.5952,44.104 C29.7872,44.1168 29.9664,44.0528 30.1072,43.9248 C30.1456,43.8864 30.1456,43.8352 30.1072,43.7968 L30.0176,43.6176 Z" id="Path"></path>
                        <path d="M32.0784,42.248 L31.7456,42.248 C31.7072,42.248 31.6688,42.2736 31.6688,42.3248 L31.6688,43.272 C31.6944,43.4896 31.528,43.6816 31.3104,43.7072 C31.2848,43.7072 31.272,43.7072 31.2464,43.7072 C31.0288,43.72 30.8496,43.5536 30.8368,43.3488 C30.8368,43.3232 30.8368,43.2976 30.8368,43.272 L30.8368,42.312 C30.8368,42.2736 30.7984,42.2352 30.76,42.2352 L30.4272,42.2352 C30.3888,42.2352 30.3504,42.2608 30.3504,42.312 L30.3504,43.3488 C30.312,43.7456 30.6064,44.0912 30.9904,44.1296 C31.0288,44.1296 31.0672,44.1296 31.0928,44.1296 C31.3104,44.1424 31.528,44.04 31.656,43.8608 L31.656,44.0016 C31.656,44.04 31.6944,44.0784 31.7328,44.0784 L32.0656,44.0784 C32.104,44.0784 32.1424,44.04 32.1424,44.0016 L32.1424,42.3376 C32.1552,42.2864 32.1296,42.248 32.0784,42.248 C32.0784,42.248 32.0784,42.248 32.0784,42.248" id="Path"></path>
                        <path d="M33.512,42.2224 L33.448,42.2224 C33.256,42.2224 33.0896,42.3248 33,42.4912 L33,42.3248 C33,42.2864 32.9616,42.2608 32.9232,42.248 L32.6032,42.248 C32.5648,42.248 32.5264,42.2864 32.5264,42.3248 L32.5264,43.9888 C32.5264,44.0272 32.5648,44.0656 32.6032,44.0656 L32.6032,44.0656 L32.936,44.0656 C32.9744,44.0656 33.0128,44.04 33.0128,43.9888 L33.0128,43.1696 C33.0128,42.8496 33.1536,42.7344 33.3968,42.7344 L33.4864,42.7344 C33.5376,42.7344 33.576,42.696 33.576,42.6448 C33.576,42.6448 33.576,42.6448 33.576,42.6448 L33.576,42.3248 C33.6016,42.2864 33.5632,42.2352 33.512,42.2224 C33.512,42.2352 33.512,42.2352 33.512,42.2224" id="Path"></path>
                        <path d="M34.2288,42.9776 C34.2672,42.76 34.4592,42.5936 34.6768,42.5936 C34.8944,42.5936 35.0864,42.76 35.1248,42.9776 L34.2288,42.9776 Z M34.6768,42.1968 C34.152,42.1968 33.7296,42.6192 33.7296,43.144 C33.7296,43.1568 33.7296,43.1568 33.7296,43.1696 C33.7552,43.72 34.216,44.1552 34.7792,44.1296 C35.0608,44.1168 35.3168,43.9888 35.496,43.784 C35.5216,43.7456 35.5216,43.7072 35.4832,43.6816 C35.4832,43.6816 35.4832,43.6816 35.4832,43.6816 L35.24,43.5152 C35.2016,43.4896 35.1632,43.5152 35.1376,43.528 C35.0352,43.656 34.8688,43.7328 34.7152,43.72 C34.472,43.72 34.2672,43.5408 34.2416,43.2976 L35.5472,43.2976 C35.6112,43.2976 35.6368,43.2592 35.6368,43.208 L35.6368,43.1184 C35.6368,42.6192 35.24,42.2096 34.7408,42.2096 C34.728,42.2096 34.7152,42.2096 34.7024,42.2096" id="Shape"></path>
                        <path d="M36.84,42.9648 L36.5456,42.9136 C36.3792,42.888 36.3024,42.824 36.3024,42.7344 C36.3024,42.6448 36.4048,42.568 36.5712,42.568 C36.7248,42.5808 36.8784,42.632 37.0064,42.7216 C37.0704,42.76 37.1344,42.76 37.1728,42.7216 L37.288,42.5808 C37.3264,42.5424 37.3392,42.4784 37.3008,42.44 C37.3008,42.44 37.288,42.4272 37.288,42.4272 C37.0832,42.2608 36.8272,42.184 36.5712,42.184 C36.0976,42.184 35.8032,42.44 35.8032,42.7728 C35.8032,43.0544 36.0208,43.2848 36.2896,43.3104 L36.584,43.3744 C36.776,43.4128 36.8784,43.4512 36.8784,43.5536 C36.8784,43.656 36.7888,43.7328 36.584,43.7328 C36.4048,43.7328 36.2384,43.6688 36.1104,43.5408 C36.0592,43.4896 35.9952,43.4896 35.944,43.5408 C35.944,43.5408 35.944,43.5408 35.944,43.5408 L35.8032,43.656 C35.7264,43.72 35.7136,43.8096 35.8544,43.912 C36.0592,44.0528 36.3024,44.1296 36.5456,44.1296 C37.0192,44.1296 37.3648,43.8736 37.3648,43.5152 C37.3648,43.1568 37.1216,43.0416 36.8016,42.9648" id="Path"></path>
                        <path d="M37.9792,43.4512 C37.8,43.4512 37.6464,43.6048 37.6464,43.784 C37.6464,43.9632 37.8,44.1168 37.9792,44.1168 C38.1584,44.1168 38.312,43.9632 38.312,43.784 C38.312,43.6048 38.1584,43.4512 37.9792,43.4512 L37.9792,43.4512" id="Path"></path>
                        <g id="Group-51" transform="translate(42.500000, 0.000000)">
                            <path d="M8.39735054,8.25576527 C8.77020215,8.57659107 9.24710538,8.75001043 9.74135054,8.74133946 C10.2355957,8.75001043 10.7124989,8.58526204 11.0853505,8.25576527 C11.4582022,7.92626849 11.6576344,7.4406943 11.6402925,6.94644914 C11.6576344,6.44353301 11.4582022,5.95795882 11.0853505,5.61979107 C10.7211699,5.2902943 10.2355957,5.11687494 9.74135054,5.12554591 C9.24710538,5.11687494 8.77020215,5.2902943 8.39735054,5.61979107 C8.02449892,5.95795882 7.82506667,6.44353301 7.8424086,6.94644914 C7.82506667,7.4406943 8.03316989,7.92626849 8.39735054,8.25576527" id="Path"></path>
                            <path d="M8.65747957,12.6519459 C8.3279828,13.1115072 8.15456344,13.6664491 8.16323441,14.230062 C8.16323441,14.5769008 8.19791828,14.9237395 8.26728602,15.2619072 C8.28462796,15.3399459 8.37133763,15.3919717 8.44937634,15.3659588 C8.44937634,15.3659588 8.44937634,15.3659588 8.44937634,15.3659588 C10.4003441,14.516204 11.5535828,13.2242298 11.5535828,11.5854169 C11.5535828,10.1547072 10.7124989,9.35697817 9.6719828,9.35697817 C8.63146667,9.35697817 7.7903828,10.1026814 7.7903828,11.1085137 C7.78171183,11.7414943 8.1112086,12.3311201 8.65747957,12.6519459" id="Path"></path>
                            <path d="M3.16008602,3.59078462 C3.58496344,3.96363623 4.13123441,4.15439753 4.69484731,4.14572656 C5.25846022,4.16306849 5.80473118,3.96363623 6.2296086,3.59078462 C6.65448602,3.20926204 6.88860215,2.65432011 6.86258925,2.08203623 C6.88860215,1.50975236 6.65448602,0.954810428 6.2296086,0.56461688 C5.80473118,0.191765267 5.25846022,-0.0163379587 4.69484731,0.00100397677 C4.13123441,-0.0163379587 3.58496344,0.191765267 3.16008602,0.56461688 C2.7352086,0.954810428 2.50109247,1.50975236 2.52710538,2.08203623 C2.50109247,2.65432011 2.72653763,3.20926204 3.16008602,3.59078462" id="Path"></path>
                            <path d="M2.54444731,20.9327201 C2.91729892,20.9240491 3.28147957,20.8720233 3.64566022,20.7679717 C4.08787957,20.6552491 4.51275699,20.4818298 4.91162151,20.2477137 C5.34516989,19.9962556 5.72669247,19.6667588 6.03884731,19.2765653 C6.39435699,18.8430169 6.64581505,18.3401008 6.78455054,17.7938298 C6.88860215,17.3689524 6.95796989,16.935404 6.9839828,16.5018556 C7.0099957,16.0249524 7.02733763,15.6174169 7.02733763,15.2965911 C7.02733763,14.8110169 7.02733763,8.85406204 7.02733763,7.72683623 C7.02733763,7.62278462 7.02733763,7.56208785 7.02733763,7.56208785 C7.02733763,7.51873301 7.02733763,7.18056527 7.01866667,7.13721043 C6.97531183,6.59093946 6.74986667,5.68915882 5.70067957,5.35966204 C3.92313118,4.81339107 2.79590538,5.32497817 2.79590538,5.32497817 C2.69185376,5.37700398 2.63115699,5.48105559 2.63115699,5.59377817 L2.63115699,15.6000749 C2.63115699,15.9035588 2.60514409,16.1983717 2.54444731,16.4931846 C2.49242151,16.7533137 2.37969892,16.9961008 2.21495054,17.2128749 C2.03286022,17.4383201 1.79874409,17.6117395 1.52994409,17.724462 C1.1224086,17.8805395 0.688860215,17.9759201 0.255311828,18.001933 C0.13391828,18.010604 0.0472086022,18.1059846 0.0385376344,18.2273782 C0.0385376344,18.2273782 -0.048172043,19.623404 0.0385376344,20.0742943 C0.0905634409,20.967404 2.55311828,20.9327201 2.54444731,20.9327201" id="Path"></path>
                        </g>
                    </g>
                </g>
            </g>
        </g>
    </g>
</svg>